# xmcd
#
# Track frame offsets:
#	150
#	15288
#	27313
#	38350
#	53743
#	65292
#	78456
#	97349
#	108855
#	119776
#	134382
#	148275
#	161188
#	176267
#
# Disc length: 2844 seconds
#
# Revision: 0
# Processed by: cddbd v1.5.2PL0 Copyright (c) Steve Scherf et al.
# Submitted via: dBpowerAMP V4.0
#
DISCID=bb0b1a0e
DTITLE=Ryan Adams - Easy Tiger
DYEAR=2007
DGENRE=Alternative
TTITLE0=Good Night Rose
TTITLE1=Two
TTITLE2=Everybody Knows
TTITLE3=Halloweenhead
TTITLE4=Oh My God, Whatever, etc.
TTITLE5=Tears of Gold
TTITLE6=The Sun Also Sets
TTITLE7=Off Broadway
TTITLE8=Pearls on a String
TTITLE9=Rip Off
TTITLE10=Two Hearts
TTITLE11=These Girls
TTITLE12=I Taught Myself How to Grow Old
TTITLE13=What Sin Replaces Love
EXTD=
EXTT0=
EXTT1=
EXTT2=
EXTT3=
EXTT4=
EXTT5=
EXTT6=
EXTT7=
EXTT8=
EXTT9=
EXTT10=
EXTT11=
EXTT12=
EXTT13=
PLAYORDER=
